<svg width="35" height="35" viewBox="0 0 35 35" fill="none" xmlns="http://www.w3.org/2000/svg">
<g id="Frame 37">
<rect width="35" height="35" rx="17.5" fill="#2DC071"/>
<path id="Vector" fill-rule="evenodd" clip-rule="evenodd" d="M25.7957 12.2019C25.8604 12.2658 25.9118 12.3416 25.9469 12.4251C25.982 12.5086 26 12.5982 26 12.6886C26 12.779 25.982 12.8685 25.9469 12.952C25.9118 13.0355 25.8604 13.1114 25.7957 13.1752L16.0578 22.7981C15.9932 22.8621 15.9164 22.9129 15.8319 22.9475C15.7474 22.9822 15.6568 23 15.5654 23C15.4739 23 15.3833 22.9822 15.2988 22.9475C15.2143 22.9129 15.1375 22.8621 15.0729 22.7981L10.204 17.9866C10.0734 17.8576 10 17.6825 10 17.5C10 17.3175 10.0734 17.1424 10.204 17.0134C10.3346 16.8843 10.5117 16.8118 10.6964 16.8118C10.8811 16.8118 11.0583 16.8843 11.1889 17.0134L15.5654 21.3395L24.8107 12.2019C24.8754 12.1379 24.9521 12.0871 25.0366 12.0525C25.1211 12.0178 25.2117 12 25.3032 12C25.3947 12 25.4853 12.0178 25.5698 12.0525C25.6543 12.0871 25.731 12.1379 25.7957 12.2019Z" fill="white"/>
</g>
</svg>
