<svg width="30" height="30" viewBox="0 0 30 30" fill="none" xmlns="http://www.w3.org/2000/svg">
<g id="bx:bx-star">
<path id="Vector" d="M8.72825 17.6264L6.91541 25.4763C6.85928 25.714 6.87613 25.9631 6.96377 26.1911C7.05141 26.4191 7.20576 26.6153 7.40667 26.7542C7.60757 26.8931 7.84569 26.9682 8.08993 26.9696C8.33416 26.9711 8.57316 26.8988 8.7757 26.7624L15.4004 22.3459L22.0252 26.7624C22.2324 26.9 22.4768 26.9708 22.7255 26.9653C22.9743 26.9599 23.2153 26.8784 23.4163 26.7318C23.6173 26.5853 23.7687 26.3807 23.8499 26.1456C23.9312 25.9105 23.9385 25.6561 23.8709 25.4167L21.6456 17.6301L27.1644 12.6636C27.3412 12.5045 27.4674 12.297 27.5275 12.0669C27.5876 11.8367 27.5789 11.594 27.5025 11.3688C27.4261 11.1435 27.2854 10.9456 27.0977 10.7995C26.9101 10.6534 26.6837 10.5654 26.4466 10.5466L19.5103 9.99426L16.5088 3.35004C16.4131 3.1361 16.2575 2.95442 16.0609 2.82695C15.8642 2.69947 15.6348 2.63164 15.4004 2.63164C15.1661 2.63164 14.9367 2.69947 14.74 2.82695C14.5434 2.95442 14.3878 3.1361 14.2921 3.35004L11.2905 9.99426L4.35433 10.5454C4.12129 10.5639 3.89849 10.6491 3.71261 10.7908C3.52672 10.9326 3.38561 11.1249 3.30616 11.3448C3.22672 11.5647 3.21229 11.8027 3.26462 12.0306C3.31694 12.2584 3.4338 12.4664 3.60121 12.6296L8.72825 17.6264V17.6264ZM12.1994 12.3631C12.4166 12.346 12.6251 12.2708 12.8032 12.1453C12.9813 12.0199 13.1224 11.8489 13.2117 11.6501L15.4004 6.80659L17.5892 11.6501C17.6785 11.8489 17.8196 12.0199 17.9977 12.1453C18.1758 12.2708 18.3843 12.346 18.6015 12.3631L23.4341 12.7464L19.4544 16.3282C19.1088 16.6397 18.9714 17.1191 19.0979 17.5668L20.6224 22.9019L16.0769 19.8712C15.8774 19.7372 15.6426 19.6657 15.4023 19.6657C15.162 19.6657 14.9271 19.7372 14.7276 19.8712L9.97776 23.0381L11.2553 17.5072C11.3021 17.3037 11.2958 17.0917 11.237 16.8914C11.1782 16.6911 11.0688 16.5093 10.9195 16.3635L7.22323 12.7597L12.1994 12.3631V12.3631Z" fill="#F3CD03"/>
</g>
</svg>
