<svg width="42" height="42" viewBox="0 0 42 42" fill="none" xmlns="http://www.w3.org/2000/svg">
<g id="ant-design:facebook-filled">
<path id="Vector" d="M35.7103 4.88281H6.25121C5.54275 4.88281 4.97038 5.45518 4.97038 6.16364V35.6228C4.97038 36.3312 5.54275 36.9036 6.25121 36.9036H35.7103C36.4188 36.9036 36.9912 36.3312 36.9912 35.6228V6.16364C36.9912 5.45518 36.4188 4.88281 35.7103 4.88281ZM32.0119 14.2289H29.4543C27.449 14.2289 27.0607 15.1815 27.0607 16.5824V19.6684H31.8478L31.2234 24.4995H27.0607V36.9036H22.0695V24.5035H17.8948V19.6684H22.0695V16.1061C22.0695 11.9714 24.5951 9.71795 28.2855 9.71795C30.0547 9.71795 31.5716 9.85004 32.0159 9.91007V14.2289H32.0119Z" fill="#2091F9"/>
</g>
</svg>
