<svg width="30" height="30" viewBox="0 0 30 30" fill="none" xmlns="http://www.w3.org/2000/svg">
<g id="bx:bxs-star">
<path id="Vector" d="M26.7034 11.1678C26.6269 10.9426 26.4862 10.7446 26.2985 10.5985C26.1108 10.4523 25.8844 10.3643 25.6473 10.3453L18.7111 9.7942L15.7096 3.14998C15.614 2.93598 15.4585 2.75422 15.2619 2.62664C15.0653 2.49906 14.836 2.4311 14.6016 2.43097C14.3672 2.43084 14.1378 2.49855 13.9411 2.62591C13.7443 2.75328 13.5886 2.93487 13.4928 3.14876L10.4913 9.7942L3.55509 10.3453C3.32205 10.3638 3.09925 10.449 2.91337 10.5908C2.72748 10.7326 2.58637 10.9249 2.50692 11.1447C2.42748 11.3646 2.41305 11.6027 2.46538 11.8305C2.5177 12.0584 2.63456 12.2663 2.80197 12.4295L7.92779 17.4263L6.11496 25.2763C6.05991 25.5139 6.07755 25.7626 6.16559 25.99C6.25364 26.2175 6.40801 26.4132 6.60868 26.5519C6.80936 26.6905 7.04707 26.7656 7.29097 26.7675C7.53487 26.7694 7.77369 26.6979 7.97646 26.5623L14.6012 22.1458L21.226 26.5623C21.4332 26.6999 21.6776 26.7707 21.9263 26.7653C22.175 26.7598 22.4161 26.6783 22.6171 26.5318C22.8181 26.3852 22.9694 26.1806 23.0507 25.9455C23.1319 25.7104 23.1393 25.4561 23.0716 25.2167L20.8464 17.43L26.3652 12.4636C26.7265 12.1375 26.8591 11.6289 26.7034 11.1678V11.1678Z" fill="#F3CD03"/>
</g>
</svg>
