<svg width="42" height="42" viewBox="0 0 42 42" fill="none" xmlns="http://www.w3.org/2000/svg">
<g id="ant-design:linkedin-filled">
<path id="Vector" d="M35.6981 4.88281H6.23899C5.53053 4.88281 4.95816 5.45518 4.95816 6.16364V35.6228C4.95816 36.3312 5.53053 36.9036 6.23899 36.9036H35.6981C36.4066 36.9036 36.9789 36.3312 36.9789 35.6228V6.16364C36.9789 5.45518 36.4066 4.88281 35.6981 4.88281ZM14.4563 32.1685H9.70524V16.8866H14.4563V32.1685ZM12.0828 14.7972C11.5381 14.7972 11.0057 14.6357 10.5529 14.3331C10.1 14.0306 9.74704 13.6005 9.53862 13.0973C9.33019 12.5941 9.27565 12.0404 9.38191 11.5062C9.48817 10.972 9.75044 10.4814 10.1356 10.0962C10.5207 9.71111 11.0114 9.44884 11.5455 9.34258C12.0797 9.23633 12.6334 9.29086 13.1366 9.49929C13.6398 9.70772 14.0699 10.0607 14.3725 10.5135C14.6751 10.9664 14.8366 11.4988 14.8366 12.0435C14.8326 13.5644 13.5998 14.7972 12.0828 14.7972ZM32.2439 32.1685H27.4968V24.7357C27.4968 22.9625 27.4648 20.6851 25.0272 20.6851C22.5576 20.6851 22.1773 22.6143 22.1773 24.6076V32.1685H17.4343V16.8866H21.9892V18.976H22.0533C22.6857 17.7752 24.2347 16.5064 26.5482 16.5064C31.3593 16.5064 32.2439 19.6724 32.2439 23.7871V32.1685V32.1685Z" fill="#2091F9"/>
</g>
</svg>
