<svg width="51" height="50" viewBox="0 0 51 50" fill="none" xmlns="http://www.w3.org/2000/svg">
<g id="ic:round-restaurant-menu">
<rect x="0.5" width="50" height="50" rx="25" fill="#E77C40"/>
<path id="Vector" d="M36.2558 28.5544V32.8556C36.2558 33.426 36.0108 33.9731 35.5747 34.3764C35.1385 34.7797 34.547 35.0063 33.9302 35.0063H29.2791V32.8556C29.2791 32.2853 29.0341 31.7382 28.5979 31.3349C28.1618 30.9316 27.5703 30.705 26.9535 30.705C26.3367 30.705 25.7452 30.9316 25.3091 31.3349C24.8729 31.7382 24.6279 32.2853 24.6279 32.8556V35.0063H19.9767C19.36 35.0063 18.7684 34.7797 18.3323 34.3764C17.8962 33.9731 17.6512 33.426 17.6512 32.8556V28.5544H15.3256C14.7088 28.5544 14.1173 28.3278 13.6811 27.9245C13.245 27.5212 13 26.9741 13 26.4038C13 25.8334 13.245 25.2864 13.6811 24.883C14.1173 24.4797 14.7088 24.2531 15.3256 24.2531H17.6512V19.9519C17.6512 18.769 18.6977 17.8013 19.9767 17.8013H24.6279V15.6506C24.6279 15.0802 24.8729 14.5332 25.3091 14.1299C25.7452 13.7266 26.3367 13.5 26.9535 13.5C27.5703 13.5 28.1618 13.7266 28.5979 14.1299C29.0341 14.5332 29.2791 15.0802 29.2791 15.6506V17.8013H33.9302C34.547 17.8013 35.1385 18.0278 35.5747 18.4312C36.0108 18.8345 36.2558 19.3815 36.2558 19.9519V24.2531H33.9302C33.3134 24.2531 32.7219 24.4797 32.2858 24.883C31.8497 25.2864 31.6047 25.8334 31.6047 26.4038C31.6047 26.9741 31.8497 27.5212 32.2858 27.9245C32.7219 28.3278 33.3134 28.5544 33.9302 28.5544H36.2558Z" fill="white"/>
</g>
</svg>
