<svg width="51" height="50" viewBox="0 0 51 50" fill="none" xmlns="http://www.w3.org/2000/svg">
<g id="ic:round-restaurant-menu">
<rect x="0.5" width="50" height="50" rx="25" fill="#E77C40"/>
<path id="Vector" d="M20.9587 26.4404L24.0183 23.3809L17.3262 16.6996C16.8073 16.1807 15.9099 16.3212 15.5856 16.9915C14.818 18.6024 15.0991 20.5808 16.4289 21.9214L20.9587 26.4404ZM28.2887 24.4836C29.9428 25.2512 32.2672 24.7106 33.9861 22.9917C36.051 20.9267 36.4511 17.9645 34.8618 16.3753C33.2834 14.7968 30.3212 15.186 28.2454 17.251C26.5265 18.9699 25.9859 21.2943 26.7535 22.9484L16.9586 32.7433C16.7565 32.9454 16.6429 33.2196 16.6429 33.5055C16.6429 33.7914 16.7565 34.0655 16.9586 34.2677C17.1608 34.4698 17.4349 34.5834 17.7208 34.5834C18.0067 34.5834 18.2808 34.4698 18.483 34.2677L25.1751 27.5972L31.8563 34.2785C31.9564 34.3786 32.0752 34.458 32.206 34.5121C32.3368 34.5663 32.477 34.5942 32.6185 34.5942C32.7601 34.5942 32.9002 34.5663 33.031 34.5121C33.1618 34.458 33.2806 34.3786 33.3807 34.2785C33.4808 34.1784 33.5602 34.0596 33.6144 33.9288C33.6685 33.798 33.6964 33.6578 33.6964 33.5163C33.6964 33.3747 33.6685 33.2346 33.6144 33.1038C33.5602 32.973 33.4808 32.8542 33.3807 32.7541L26.6994 26.0728L28.2887 24.4836Z" fill="white"/>
</g>
</svg>
