<svg width="42" height="42" viewBox="0 0 42 42" fill="none" xmlns="http://www.w3.org/2000/svg">
<g id="ant-design:twitter-outlined">
<path id="Vector" d="M37.6449 10.5786C36.4201 11.1069 35.0873 11.4872 33.7144 11.6353C35.1398 10.7885 36.2072 9.45067 36.7163 7.87285C35.3788 8.66852 33.9135 9.22646 32.3855 9.52192C31.7469 8.83918 30.9745 8.29528 30.1165 7.92411C29.2584 7.55294 28.3332 7.36245 27.3983 7.36452C23.6158 7.36452 20.5739 10.4305 20.5739 14.1929C20.5739 14.7213 20.6379 15.2496 20.742 15.758C15.0783 15.4618 10.027 12.756 6.66884 8.61333C6.05694 9.65847 5.73629 10.8485 5.74023 12.0596C5.74023 14.4291 6.94502 16.5185 8.78221 17.7473C7.69952 17.7046 6.64219 17.407 5.69621 16.8787V16.9627C5.69621 20.2809 8.04173 23.0307 11.1678 23.6631C10.5808 23.8156 9.97701 23.8936 9.37059 23.8952C8.9263 23.8952 8.50603 23.8512 8.08175 23.7912C8.94631 26.4969 11.4639 28.4622 14.4619 28.5263C12.1164 30.3634 9.17846 31.4441 5.9884 31.4441C5.41602 31.4441 4.88768 31.4241 4.33932 31.3601C7.36529 33.3013 10.9556 34.4221 14.8221 34.4221C27.3743 34.4221 34.2427 24.0233 34.2427 14.9975C34.2427 14.7013 34.2427 14.4051 34.2227 14.1089C35.5516 13.1363 36.7163 11.9315 37.6449 10.5786Z" fill="#2091F9"/>
</g>
</svg>
